<svg xmlns="http://www.w3.org/2000/svg" width="176.14" height="57.68" viewBox="0 0 176.14 57.68">
  <g id="Group_4" data-name="Group 4" transform="translate(-16.317 -853.958)">
    <g id="Group_1" data-name="Group 1" transform="translate(0 831)">
      <g id="Group_1-2" data-name="Group 1">
        <path id="Path_1" data-name="Path 1" d="M25.178,72.153c3.973,1.135,10.371,3.15,15.318,1.771a8.223,8.223,0,0,0,4.43-2.6A2.518,2.518,0,0,0,43.8,67.543c-4.966-2.427-19.116-2.824-21.826-10.03C18.26,47.7,29.518,34.594,37.522,29.87c4.19-2.573,8.743-4.117,12.311-2.455a12.743,12.743,0,0,1,5.808,5.459c1.406,2.845-.33,6.121-1.392,7.927a62.69,62.69,0,0,0-4.505,9.426c-.295.757-.728,1.233-1.847.619-1.924-1.059-3.523-3.107-2.431-7,1.007-3.986,6.784-11.5,4.232-12.933-4.085-2.331-24.021,14.836-21.031,24.217,1.294,4.689,12.99,5.434,18.169,7.457,3.562,1.294,3.8,4.805,1.282,9.361-3.661,6.182-15.295,10.848-30.851,3.422-1.221-.563-1.121-1.18-.508-1.678A9.864,9.864,0,0,1,25.178,72.153Z" fill="#263a5e"/>
        <path id="Path_2" data-name="Path 2" d="M82.059,39.934c.764-1.023,1.487-1.2,2.144-.545,1.417,1.317,2.179,4.555.225,8.416-1.815,3.471-5.709,9.391-7.313,13.56-1.69,4.4-1.435,7.646,1.191,7.29,3.165-.4,7.221-5.74,10.049-11.022.4-.69.983-.775,1.322-.1s.352,2.574-.665,4.713c-2.072,4.2-6.778,8.523-11.007,8.634-4.174.1-6.606-2.041-7.014-5.591-2.221,3.373-5.306,6.6-8.977,7.2-6.969,1.211-10.772-7.806-5.48-18.15,5.3-10.039,12.243-14.278,16.727-14.651,3.894-.333,5.848,2.081,5.843,5.04A42.82,42.82,0,0,1,82.059,39.934ZM75.11,43.491c-2.872-.022-8.9,5.559-12.472,12.936-3.45,7.125-3.173,13.88-.171,13.455C65.66,69.45,69,64.1,72.6,57.041,77.075,48.247,77.756,43.532,75.11,43.491Z" fill="#263a5e"/>
        <path id="Path_3" data-name="Path 3" d="M94.285,67.845c3.722.322,9.417-4.881,13.139-10.439.655-.94,1.581-.941,1.823.146.311,1.244-.169,2.877-1.206,4.619-1.381,2.167-7.5,8-13.623,7.8-5.3-.2-8.361-3.691-6.716-11.945,2.577-13.3,13.027-27.093,23.718-34.24,1.55-1.091,2.939-1.117,4.2,0,2.615,2.249,2.829,5.111,1.32,8.527-4.03,8.9-14.558,17.133-22,21.507C91.489,61.226,90.8,67.528,94.285,67.845ZM113.913,30.4c-1.176-.739-8.975,7.038-15.227,16.594a33.684,33.684,0,0,0-2.165,3.587C108.387,42.466,115.122,31.191,113.913,30.4Z" fill="#263a5e"/>
        <path id="Path_4" data-name="Path 4" d="M152.333,80.122c-6.124-2.028-6.5-6.943-2.365-12.463,4.763-6.379,14.74-11.45,13.49-12.345-.9-.64-6.4-.47-13.22,3.088-6.171,3.188-11.754,9.322-16.443,15.571-.347.466-.976.791-1.5-.1-1.046-1.776-1.131-4.272,1-7.7a52.785,52.785,0,0,1,7.425-8.89,14.843,14.843,0,0,1-8.157.14c-3,5.971-9.441,12.673-15.328,13.735a8.859,8.859,0,0,1-9.5-4.221c-3.116-4.715-1.647-11.322,2.749-16.9,3.77-4.856,9.674-8.566,15.125-8.1a6.119,6.119,0,0,1,5.531,3.469c1.678,2.77,4.166,3.746,2.558,8.992a7.741,7.741,0,0,1-.355,1.321c5.266.985,11.938-3.071,18.39-7.7.84-.63,1.546-.426,1.878.382.778,2.206.014,4.671-1.664,6.942,4.779-2.334,11.817-4.308,14.662-2.934a5.227,5.227,0,0,1,.494,8.758c-3.053,2.48-8.694,6.259-11.805,9.386-3.4,3.431-4.024,6.805-1.163,7.7,3.014.952,8.214-2.369,13.33-6.186a.79.79,0,0,1,1.327.542c.046,1-.549,2.4-2.584,4.1C162.519,79.787,156.693,81.581,152.333,80.122Zm-29.4-32.98a25.819,25.819,0,0,0-7.622,6.282c-4.36,5.248-5.994,12.208-4.051,14.064,1.968,1.86,6.993-.226,11.97-6.339a44.36,44.36,0,0,0,4.111-5.856C124.664,53.365,122.61,50.084,122.937,47.142Zm6.791,1.1c-.006-2.469-1.942-2.34-2.646-.224a5.417,5.417,0,0,0,1.205,5.361A13.531,13.531,0,0,0,129.728,48.241Z" fill="#263a5e"/>
      </g>
    </g>
    <g id="Group_2" data-name="Group 2" transform="translate(0 831)">
      <g id="Group_3" data-name="Group 3">
        <path id="Path_5" data-name="Path 5" d="M127.579,30.976a1.585,1.585,0,0,1-.543,1.128,1.618,1.618,0,0,1-2.684-1.368,1.552,1.552,0,0,1,.542-1.12,1.618,1.618,0,0,1,2.685,1.36Z" fill="#ffaba2"/>
        <path id="Path_6" data-name="Path 6" d="M141.432,36.182a2.38,2.38,0,0,1-2.383,2.978,9.193,9.193,0,0,1-1.8-.139,9.446,9.446,0,0,1-2.037-.488.672.672,0,0,1-.336-.672.565.565,0,0,1-.009-.239l1.361-7.254c.18-.958,1.042-.836,1.909-.66.344.064.692.116,1.048.2a5.464,5.464,0,0,1,1.683.607,3.792,3.792,0,0,1,.375.255,1.169,1.169,0,0,1,.3.32,2.275,2.275,0,0,1-.9,3.533A2.477,2.477,0,0,1,141.432,36.182ZM139.2,37.509a1.514,1.514,0,0,0,.133-2.051,2.357,2.357,0,0,0-1.36-.639c-.489-.078-.8-.189-.874.286-.056.439-.194.889-.27,1.3-.043.23-.156.553-.012.764a1.51,1.51,0,0,0,.954.417A2.356,2.356,0,0,0,139.2,37.509Zm-1.462-5.6c-.059.319-.132.636-.189.942-.143.688.931.743,1.5.757a1.042,1.042,0,0,0,1.185-.822c.208-.754-.268-1.108-1.055-1.282C138.121,31.277,137.861,31.11,137.738,31.907Z" fill="#ffaba2"/>
        <path id="Path_7" data-name="Path 7" d="M146.285,32.993l-.543,1.968.5.132c.682.165,1.159.29,1.811.474l.062.016c.2.053.387.115.575.165a2.749,2.749,0,0,1,.536.261.805.805,0,0,1,.293.319.606.606,0,0,1,.03.4,1.175,1.175,0,0,1-.1.282.4.4,0,0,1-.229.209.45.45,0,0,1-.272.063,2,2,0,0,1-.344-.023,1.664,1.664,0,0,1-.361-.055l-.592-.155-2.329-.6-.671,2.458,2.495.681.591.155a3.222,3.222,0,0,1,.35.1c.119.058.228.1.322.152a.971.971,0,0,1,.216.2.573.573,0,0,1,.094.307,1,1,0,0,1-.06.28.571.571,0,0,1-.222.331.707.707,0,0,1-.411.135,1.493,1.493,0,0,1-.608-.039c-.192-.037-.393-.09-.585-.126l-.075-.021q-.985-.237-2.037-.533c-.651-.184-.713-.2-1.242-.339a.785.785,0,0,1-.451-.226.51.51,0,0,1-.151-.295.135.135,0,0,1-.018-.085c-.007-.029-.024-.06-.031-.089a.98.98,0,0,1,.02-.277c.006-.079.017-.17.028-.261l.053-.2c.015-.063.048-.136.064-.2l.258-.98.5-1.8.437-1.672c.159-.6.281-1.015.438-1.565l.017-.063c.058-.173.114-.333.157-.5a1.333,1.333,0,0,1,.266-.454.647.647,0,0,1,.343-.232.724.724,0,0,1,.42-.011.538.538,0,0,1,.147.052l0-.013c.6.158.642.169,1.336.337.67.162,1.248.314,1.887.495l.05.013c.185.062.387.115.572.177a1.751,1.751,0,0,1,.524.257.75.75,0,0,1,.295.307.633.633,0,0,1,.021.381.946.946,0,0,1-.1.27.453.453,0,0,1-.219.225,1.447,1.447,0,0,1-.272.063,2.739,2.739,0,0,1-.328-.032,1.857,1.857,0,0,1-.371-.071l-.566-.148-2.518-.646Z" fill="#ffaba2"/>
        <path id="Path_8" data-name="Path 8" d="M158.048,44.129a.462.462,0,0,1-.182.238.622.622,0,0,1-.319.121.985.985,0,0,1-.693-.108.8.8,0,0,1-.25-.269.307.307,0,0,1-.04-.082.3.3,0,0,0-.039-.084,1.452,1.452,0,0,1-.088-.294c-.011-.087-.022-.172-.041-.276a.671.671,0,0,1-.019-.215,1.2,1.2,0,0,1,.008-.217l-.043-.692c-1.115-.4-2.259-.791-3.37-1.2l-.471.509c-.047.052-.085.122-.131.174a1.449,1.449,0,0,1-.151.153c-.08.068-.143.129-.218.185a.922.922,0,0,1-.242.176.292.292,0,0,0-.083.039.278.278,0,0,1-.083.039.793.793,0,0,1-.364.051.986.986,0,0,1-.605-.354.633.633,0,0,1-.171-.295.465.465,0,0,1,.01-.3,2.089,2.089,0,0,1,.13-.285,1.176,1.176,0,0,1,.139-.2c.051-.065.072-.085.077-.1l4.782-5.366.143-.169c.072-.085.147-.142.223-.239a1.62,1.62,0,0,1,.235-.233,1.434,1.434,0,0,1,.276-.192.657.657,0,0,1,.265-.085,1.344,1.344,0,0,1,.8.283.659.659,0,0,1,.152.234,2.449,2.449,0,0,1,.092.322,1.538,1.538,0,0,1,.035.33c0,.124.02.215.022.326l0,.222.314,7.182a1.154,1.154,0,0,0,0,.123,1.368,1.368,0,0,1-.018.242A2.44,2.44,0,0,1,158.048,44.129Zm-1.755-4.339c-.042-.54-.08-1.133-.137-1.748-.009-.168-.026-.354-.035-.522-.1.129-.231.262-.345.387-.432.44-.837.876-1.211,1.267l-.412.461,2.168.772Z" fill="#ffaba2"/>
        <path id="Path_9" data-name="Path 9" d="M166.715,45.939a6.029,6.029,0,0,1-.9.78,3.324,3.324,0,0,1-3.08.172,3.234,3.234,0,0,1-1.808-1.886,4.731,4.731,0,0,1,.539-3.877c.291-.61.878-1.9,1.2-2.523a2.887,2.887,0,0,1,.873-1.255,1.043,1.043,0,0,1,1.373.685.839.839,0,0,1-.073.454c-.428,1.078-1.321,2.77-1.557,3.263a4.576,4.576,0,0,0-.659,2.408,1.321,1.321,0,0,0,.949,1.059A1.545,1.545,0,0,0,165,44.977a2.077,2.077,0,0,0,.474-.509,46.52,46.52,0,0,0,2.325-4.48.929.929,0,0,1,1.249-.355.981.981,0,0,1,.457,1.1A20.185,20.185,0,0,1,166.715,45.939Z" fill="#ffaba2"/>
        <path id="Path_10" data-name="Path 10" d="M178.132,45.967a2.432,2.432,0,0,1-.188.25.633.633,0,0,1-.288.142.962.962,0,0,1-.3-.052,2.674,2.674,0,0,1-.361-.135,3.292,3.292,0,0,1-.327-.189l-.561-.352c-.272-.154-.525-.313-.779-.471-.543.916-1.265,2-2.783,4.422l-.524.837a.886.886,0,0,0-.093.172,1.169,1.169,0,0,1-.121.169c-.053.059-.112.13-.178.211a.87.87,0,0,1-.175.181c-.054.013-.079.028-.086.039l-.074.045a.643.643,0,0,1-.341.078.951.951,0,0,1-.574-.282.619.619,0,0,1-.224-.278.7.7,0,0,1-.019-.288.847.847,0,0,1,.067-.28.885.885,0,0,1,.1-.23l3.545-5.663c-.177-.109-1.249-.8-1.427-.954a4.306,4.306,0,0,1-.382-.347.808.808,0,0,1-.232-.436.567.567,0,0,1,.079-.4,1.112,1.112,0,0,1,.181-.239.466.466,0,0,1,.314-.11,1.281,1.281,0,0,1,.416.045,1.664,1.664,0,0,1,.372.142c.128.065.238.133.37.216.518.324.958.6,1.472.906.855.521,1.7,1.063,2.52,1.609a1.775,1.775,0,0,1,.471.448.793.793,0,0,1,.2.417A.527.527,0,0,1,178.132,45.967Z" fill="#ffaba2"/>
        <path id="Path_11" data-name="Path 11" d="M185.689,52.047a1.692,1.692,0,0,1-.3.177,1.317,1.317,0,0,1-.349.117c-.116.039-.225.067-.322.1l-.272.064-2.811.8-.471.1-2.2,2.67a1.826,1.826,0,0,0-.2.187c-.07.044-.129.095-.217.141a.207.207,0,0,0-.071.043.59.59,0,0,0-.079.035.736.736,0,0,1-.319.041.99.99,0,0,1-.543-.363.519.519,0,0,1-.159-.3.692.692,0,0,1-.008-.276c.046-.1.055-.19.1-.269a.745.745,0,0,1,.128-.2l2.254-2.741.06-.523.214-2.921.038-.271c.009-.094.017-.2.022-.334a1.513,1.513,0,0,1,.058-.357,1.563,1.563,0,0,1,.1-.352.592.592,0,0,1,.155-.209.564.564,0,0,1,.3-.122,1.4,1.4,0,0,1,.326.033.61.61,0,0,1,.387.184.814.814,0,0,1,.245.419,2.2,2.2,0,0,1,.066.593c-.007.213,0,.407-.023.621l0,.066c-.026.685-.068,1.29-.138,1.989-.005.047-.02.188-.031.346a1.625,1.625,0,0,1,.3-.094c.682-.2,1.265-.373,1.933-.531l.053-.024c.2-.037.4-.093.605-.142a1.716,1.716,0,0,1,.607-.022,1.044,1.044,0,0,1,.447.132.683.683,0,0,1,.266.353,1.565,1.565,0,0,1,.094.314.694.694,0,0,1-.05.328A.42.42,0,0,1,185.689,52.047Z" fill="#ffaba2"/>
        <path id="Path_12" data-name="Path 12" d="M191.857,61.437a1.583,1.583,0,0,1-1.186.4,1.69,1.69,0,0,1-1.49-1.78,1.589,1.589,0,0,1,.6-1.1,1.555,1.555,0,0,1,1.182-.39,1.708,1.708,0,0,1,1.489,1.78A1.556,1.556,0,0,1,191.857,61.437Z" fill="#ffaba2"/>
      </g>
    </g>
  </g>
</svg>
